{"title":"Whisky.Galore.1949.DVDRiP.x264.AC3.mkv.Zen_Bud","uid":9396527,"size":2234506015,"categoryP":"video","categoryS":"movies","magnet":"?xt=urn:btih:80c0e0057339d4b1887d0736c4fea620bba6efab&amp;dn=Whisky.Galore.1949.DVDRiP.x264.AC3.mkv.Zen_Bud&amp;tr=udp%3A%2F%2Ftracker.openbittorrent.com%3A80&amp;tr=udp%3A%2F%2Fopen.demonii.com%3A1337&amp;tr=udp%3A%2F%2Ftracker.coppersurfer.tk%3A6969&amp;tr=udp%3A%2F%2Fexodus.desync.com%3A6969","seeders":2,"leechers":0,"uploader":"Zen_Bud","files":-1,"time":1387992743,"description":"\nGeneral\n\n       Whisky.Galore.1949.DVDRiP.x264.AC3.mkv.Zen_Bud.mkv\n\t   \nFormat                                   : Matroska\nFormat version                           : Version 2\nFile size                                : 2.08 GiB\nDuration                                 : 1h 20mn\nOverall bit rate                         : 3 722 Kbps\n\nVideo\n\nFormat                                   : AVC\nFormat profile                           : &lt;a class=&quot;__cf_email__&quot; href=&quot;/cdn-cgi/l/email-protection&quot; data-cfemail=&quot;e9a1808e81a9a5dac7d8&quot;&gt;[email&amp;#160;protected]&lt;/a&gt;&lt;script cf-hash='f9e31' type=&quot;text/javascript&quot;&gt;\n/* &lt;![CDATA[ */!function(){try{var t=&quot;currentScript&quot;in document?document.currentScript:function(){for(var t=document.getElementsByTagName(&quot;script&quot;),e=t.length;e--;)if(t[e].getAttribute(&quot;cf-hash&quot;))return t[e]}();if(t&amp;&amp;t.previousSibling){var e,r,n,i,c=t.previousSibling,a=c.getAttribute(&quot;data-cfemail&quot;);if(a){for(e=&quot;&quot;,r=parseInt(a.substr(0,2),16),n=2;a.length-n;n+=2)i=parseInt(a.substr(n,2),16)^r,e+=String.fromCharCode(i);e=document.createTextNode(e),c.parentNode.replaceChild(e,c)}}}catch(u){}}();/* ]]&gt; */&lt;/script&gt;\nFormat settings, CABAC                   : Yes\nFormat settings, ReFrames                : 4 frames\nDuration                                 : 1h 20mn\nBit rate                                 : 3 500 Kbps\nWidth                                    : 720 pixels\nHeight                                   : 588 pixels\nDisplay aspect ratio                     : 4:3\nFrame rate                               : 25.000 fps\nColor space                              : YUV\nChroma subsampling                       : 4:2:0\nBit depth                                : 8 bits\nScan type                                : Progressive\nBits/(Pixel*Frame)                       : 0.331\nStream size                              : 1.93 GiB (93%)\nWriting library                          : x264 core 130 r2273 b3065e6\nColor primaries                          : BT.601 PAL\nTransfer characteristics                 : BT.709\nMatrix coefficients                      : BT.601\n\nAudio\n\nFormat                                   : AC-3\nBit rate                                 : 192 Kbps\nChannel(s)                               : 2 channels\nChannel positions                        : Front: L R\nSampling rate                            : 48.0 KHz\nBit depth                                : 16 bits\nCompression mode                         : Lossy\nStream size                              : 110 MiB (5%)\nLanguage                                 : English\n\nText #1\nFormat                                   : VobSub\nLanguage                                 : Portuguese\n\nText #2\nFormat                                   : VobSub\nLanguage                                 : Danish\n\nText #3\nFormat                                   : VobSub\nLanguage                                 : Finnish\n\nText #4\nFormat                                   : VobSub\nLanguage                                 : Dutch\n\nText #5\nFormat                                   : VobSub\nLanguage                                 : Norwegian\n\nText #6\nFormat                                   : VobSub\nLanguage                                 : Swedish\n\n\nMenu\n00:00:00.000                             : Chapter 1\n00:04:50.000                             : Chapter 2\n00:13:25.040                             : Chapter 3\n00:19:06.320                             : Chapter 4\n00:26:30.320                             : Chapter 5\n00:35:16.880                             : Chapter 6\n00:42:24.080                             : Chapter 7\n00:50:02.480                             : Chapter 8\n00:59:52.400                             : Chapter 9\n01:08:57.200                             : Chapter 10\n01:19:28.400                             : Chapter 11\n\nScottish islanders try to plunder 50,000 cases of whisky from a stranded ship.\n &lt;a href=&quot;\nhttp://www.imdb.com/title/tt0042040/&quot; rel=&quot;nofollow&quot; target=&quot;_NEW&quot;&gt;\nhttp://www.imdb.com/title/tt0042040/&lt;/a&gt;","torrent":{"xt":"urn:btih:80c0e0057339d4b1887d0736c4fea620bba6efab","amp;dn":"Whisky.Galore.1949.DVDRiP.x264.AC3.mkv.Zen_Bud","amp;tr":["udp%3A%2F%2Ftracker.openbittorrent.com%3A80","udp%3A%2F%2Fopen.demonii.com%3A1337","udp%3A%2F%2Ftracker.coppersurfer.tk%3A6969","udp%3A%2F%2Fexodus.desync.com%3A6969"],"infoHash":"80c0e0057339d4b1887d0736c4fea620bba6efab","infoHashBuffer":{"type":"Buffer","data":[128,192,224,5,115,57,212,177,136,125,7,54,196,254,166,32,187,166,239,171]},"announce":[],"urlList":[]}}